<svg xmlns="http://www.w3.org/2000/svg" viewBox="0 0 240.73 240.73"><path d="M169 148.45c-1.12 1.94-46.39 28.08-48.64 28.08-2.24 0-47.52-26.14-48.64-28.08-1.12-1.95-1.12-54.22 0-56.17 1.12-1.95 46.4-28.08 48.64-28.08 2.25 0 47.52 26.13 48.64 28.08 1.13 1.95 1.13 54.22 0 56.17z" fill="none" stroke="#000" stroke-width=".98" stroke-linecap="round" stroke-linejoin="round"/><path d="M194.69 163.27c-1.72 2.98-70.9 42.92-74.33 42.92-3.43 0-72.6-39.94-74.32-42.92-1.72-2.97-1.72-82.85 0-85.82 1.71-2.97 70.89-42.91 74.32-42.91 3.44 0 72.61 39.94 74.33 42.91 1.71 2.97 1.71 82.85 0 85.82z" fill="none" stroke="#000" stroke-width="1.5" stroke-linecap="round" stroke-linejoin="round"/><path d="M145.12 134.65c-.57 1-23.61 14.3-24.76 14.3-1.14 0-24.18-13.3-24.75-14.3-.57-.99-.57-27.59 0-28.58.57-.99 23.61-14.29 24.75-14.29 1.15 0 24.19 13.3 24.76 14.3.57.98.57 27.58 0 28.57z" fill="none" stroke="#000" stroke-width=".5" stroke-linecap="round" stroke-linejoin="round"/><path d="M140.23 131.83c-1.06 1.85-17.74 51.5-19.87 51.5-2.12 0-78.04-15.45-79.1-17.3-1.07-1.84 62.88-52.58 63.94-54.42 1.06-1.84 13.04-34.09 15.16-34.09 2.13 0 73.26-1.91 74.33-.07.5.86-53.9 53.4-54.46 54.38z" fill="#ff8080" fill-opacity=".38" stroke="#f55" stroke-width="2.5" stroke-linecap="round" stroke-linejoin="round"/><text y="121.4" x="174.07" style="line-height:.75;-inkscape-font-specification:'Arial Bold';text-align:center" font-weight="700" font-size="16.93" font-family="Arial" letter-spacing="0" word-spacing="0" text-anchor="middle" stroke-width=".26" transform="translate(34.85 61.78)"><tspan style="line-height:.75;-inkscape-font-specification:'Agency FB Bold';text-align:center" y="121.4" x="174.07" font-family="Agency FB">Bank</tspan><tspan style="line-height:.75;-inkscape-font-specification:'Agency FB Bold';text-align:center" y="134.67" x="174.07" font-family="Agency FB">Account</tspan></text><text y="157.67" x="85.46" style="line-height:.75;-inkscape-font-specification:'Arial Bold';text-align:center" font-weight="700" font-size="16.93" font-family="Arial" letter-spacing="0" word-spacing="0" text-anchor="middle" stroke-width=".26" transform="translate(34.85 61.78)"><tspan style="line-height:.75;-inkscape-font-specification:'Agency FB Bold';text-align:center" y="157.67" x="85.46" font-family="Agency FB">Graphic</tspan><tspan style="line-height:.75;-inkscape-font-specification:'Agency FB Bold';text-align:center" y="170.94" x="85.46" font-family="Agency FB">Design</tspan></text><text style="line-height:1.25;-inkscape-font-specification:'Arial Bold'" x="59.57" y="-31.2" font-weight="700" font-size="16.93" font-family="Arial" letter-spacing="0" word-spacing="0" stroke-width=".26" transform="translate(34.85 61.78)"><tspan x="59.57" y="-31.2" style="-inkscape-font-specification:'Agency FB Bold'" font-family="Agency FB">Back End</tspan></text><text y="119.9" x="1.39" style="line-height:.75;-inkscape-font-specification:'Arial Bold';text-align:center" font-weight="700" font-size="16.93" font-family="Arial" letter-spacing="0" word-spacing="0" text-anchor="middle" stroke-width=".26" transform="translate(34.85 61.78)"><tspan style="line-height:.75;-inkscape-font-specification:'Agency FB Bold';text-align:center" y="119.9" x="1.39" font-family="Agency FB">Chart</tspan><tspan style="line-height:.75;-inkscape-font-specification:'Agency FB Bold';text-align:center" y="133.16" x="1.39" font-family="Agency FB">Making</tspan></text><text style="line-height:1.25;-inkscape-font-specification:'Arial Bold'" x="-15.74" y="2.89" font-weight="700" font-size="16.93" font-family="Arial" letter-spacing="0" word-spacing="0" stroke-width=".26" transform="translate(34.85 61.78)"><tspan x="-15.74" y="2.89" style="line-height:1.25;-inkscape-font-specification:'Agency FB Bold'" font-family="Agency FB">Height</tspan></text><text y="4.39" x="150.31" style="line-height:.75;-inkscape-font-specification:'Arial Bold'" font-weight="700" font-size="16.93" font-family="Arial" letter-spacing="0" word-spacing="0" stroke-width=".26" transform="translate(34.85 61.78)"><tspan style="line-height:.75;-inkscape-font-specification:'Agency FB Bold'" y="4.39" x="150.31" font-family="Agency FB">Front End</tspan></text></svg>