<svg xmlns="http://www.w3.org/2000/svg" viewBox="0 0 234.43 238.54"><g transform="translate(-221.49 -45.28)"><path d="M413.02 201.5c-1.71 2.98-70.89 42.92-74.32 42.92-3.43 0-72.6-39.94-74.33-42.91-1.71-2.98-1.71-82.85 0-85.83 1.72-2.97 70.9-42.9 74.33-42.9 3.43 0 72.6 39.93 74.32 42.9 1.72 2.98 1.72 82.85 0 85.83z" fill="#f5f5f5" stroke="#b3b3b3" stroke-width=".5" stroke-linecap="round" stroke-linejoin="round"/><path d="M387.34 186.68c-1.12 1.94-46.4 28.08-48.64 28.08-2.25 0-47.52-26.14-48.64-28.08-1.13-1.95-1.13-54.22 0-56.17 1.12-1.94 46.4-28.08 48.64-28.08 2.25 0 47.52 26.14 48.64 28.08 1.12 1.95 1.12 54.22 0 56.17z" fill="#fafafa" stroke="#b3b3b3" stroke-width=".5" stroke-linecap="round" stroke-linejoin="round"/><text style="line-height:.75;-inkscape-font-specification:'Arial Bold';text-align:center" x="338.65" y="257.68" font-weight="700" font-size="16.93" font-family="Arial" letter-spacing="0" word-spacing="0" text-anchor="middle" stroke-width=".26"><tspan x="338.65" y="257.68" style="line-height:.75;-inkscape-font-specification:'Agency FB Bold';text-align:center" font-family="Agency FB">Graphic</tspan><tspan x="338.65" y="270.95" style="line-height:.75;-inkscape-font-specification:'Agency FB Bold';text-align:center" font-family="Agency FB">Design</tspan></text><text y="68.81" x="312.76" style="line-height:1.25;-inkscape-font-specification:'Arial Bold'" font-weight="700" font-size="16.93" font-family="Arial" letter-spacing="0" word-spacing="0" stroke-width=".26"><tspan style="-inkscape-font-specification:'Agency FB Bold'" y="68.81" x="312.76" font-family="Agency FB">Back End</tspan></text><text style="line-height:.75;-inkscape-font-specification:'Arial Bold';text-align:center" x="420.99" y="225.12" font-weight="700" font-size="16.93" font-family="Arial" letter-spacing="0" word-spacing="0" text-anchor="middle" stroke-width=".26"><tspan x="420.99" y="225.12" style="line-height:.75;-inkscape-font-specification:'Agency FB Bold';text-align:center" font-family="Agency FB">Bank</tspan><tspan x="420.99" y="238.38" style="line-height:.75;-inkscape-font-specification:'Agency FB Bold';text-align:center" font-family="Agency FB">Account</tspan></text><text style="line-height:.75;-inkscape-font-specification:'Arial Bold';text-align:center" x="252.55" y="223.61" font-weight="700" font-size="16.93" font-family="Arial" letter-spacing="0" word-spacing="0" text-anchor="middle" stroke-width=".26"><tspan x="252.55" y="223.61" style="line-height:.75;-inkscape-font-specification:'Agency FB Bold';text-align:center" font-family="Agency FB">Chart</tspan><tspan x="252.55" y="236.88" style="line-height:.75;-inkscape-font-specification:'Agency FB Bold';text-align:center" font-family="Agency FB">Making</tspan></text><text y="97.08" x="234.07" style="line-height:1.25;-inkscape-font-specification:'Arial Bold'" font-weight="700" font-size="16.93" font-family="Arial" letter-spacing="0" word-spacing="0" stroke-width=".26"><tspan style="line-height:1.25;-inkscape-font-specification:'Agency FB Bold'" y="97.08" x="234.07" font-family="Agency FB">Height</tspan></text><text style="line-height:.75;-inkscape-font-specification:'Arial Bold'" x="393.28" y="98.58" font-weight="700" font-size="16.93" font-family="Arial" letter-spacing="0" word-spacing="0" stroke-width=".26"><tspan x="393.28" y="98.58" style="line-height:.75;-inkscape-font-specification:'Agency FB Bold'" font-family="Agency FB">Front End</tspan></text><circle r="3.31" cy="115.73" cx="413.02" fill="red" fill-opacity=".71"/><circle cx="338.14" cy="116.17" r="3.31" fill="red" fill-opacity=".71"/><path d="M363.45 172.89c-.57.99-23.6 14.29-24.75 14.29-1.14 0-24.18-13.3-24.75-14.3-.58-.98-.58-27.59 0-28.58.57-.99 23.6-14.29 24.75-14.29 1.14 0 24.18 13.3 24.75 14.3.58.98.58 27.59 0 28.58z" fill="#fff" stroke="#b3b3b3" stroke-width=".5" stroke-linecap="round" stroke-linejoin="round"/><circle r="3.31" cy="149.8" cx="323.56" fill="red" fill-opacity=".71"/><circle cx="358.62" cy="170" r="3.31" fill="red" fill-opacity=".71"/><circle r="3.31" cy="221.55" cx="338.54" fill="red" fill-opacity=".71"/><circle cx="259.6" cy="204.12" r="3.31" fill="red" fill-opacity=".71"/><path d="M413.02 115.73l-74.88.44-14.58 33.63-63.96 54.32 78.94 17.43L358.62 170l54.4-54.27z" fill="#f60000" fill-opacity=".15"/></g></svg>